Coordinates
version=1
nRows=17
nColumns=24
inDegrees=yes

Units are S.I. units (second, meters, Newtons, ...)
Angles are in degrees.

endheader
time	pelvis_tilt	pelvis_list	pelvis_rotation	pelvis_tx	pelvis_ty	pelvis_tz	hip_flexion_r	hip_adduction_r	hip_rotation_r	knee_angle_r	ankle_angle_r	subtalar_angle_r	mtp_angle_r	hip_flexion_l	hip_adduction_l	hip_rotation_l	knee_angle_l	ankle_angle_l	subtalar_angle_l	mtp_angle_l	lumbar_extension	lumbar_bending	lumbar_rotation
      1.42883333	     -0.86172329	     -1.07085540	    -14.35526230	      0.92586580	      0.98596893	      0.28915917	    -18.93080878	      1.34766306	      9.49981579	     -9.53876703	     10.06845976	     -6.27764854	     14.57327190	     23.72822289	     -4.40251328	    -11.39652443	      3.63990616	      4.50286415	    -11.10500567	      6.08321897	     -0.41714732	      1.32039529	     10.27800676
      1.43300000	     -0.81616589	     -1.00450713	    -14.46158505	      0.93173091	      0.98550296	      0.28898268	    -19.06200928	      1.15419853	      9.38358491	     -9.98370729	      9.93759479	     -6.06465546	     14.72499528	     23.72829418	     -4.34270430	    -11.32738495	      3.10733964	      4.60024449	    -11.39059600	      6.11021048	     -0.42199842	      1.17556758	     10.48165100
      1.43716667	     -0.77300159	     -0.92858009	    -14.58241397	      0.93763231	      0.98509073	      0.28881649	    -19.18947007	      0.95132166	      9.34797398	    -10.41964947	      9.71888951	     -6.05858123	     14.76662689	     23.73290128	     -4.27833546	    -11.36714916	      2.54846696	      4.57979624	    -11.59103546	      6.11734930	     -0.43516956	      1.06592121	     10.51126707
      1.44133333	     -0.70948661	     -0.84518674	    -14.68503630	      0.94359649	      0.98471008	      0.28859818	    -19.31510953	      0.73028517	      9.18965523	    -10.88873692	      9.46526777	     -5.89016116	     18.70210714	     23.66032669	     -4.17393945	    -11.15891485	      2.08077072	      4.43201956	    -12.21875266	      6.93257045	     -0.44651538	      0.91740804	     10.56363148
      1.44550000	     -0.66698438	     -0.73055687	    -14.78991472	      0.94962325	      0.98433551	      0.28841514	    -19.40688708	      0.49228050	      9.09003362	    -11.37934576	      9.21843686	     -5.87914853	     18.73251643	     23.66746966	     -4.06129240	    -11.22408034	      1.47832288	      4.39704735	    -12.31726136	      6.94119191	     -0.40783437	      0.73849007	     10.67861367
      1.44966667	     -0.63581659	     -0.60379948	    -14.90117491	      0.95564770	      0.98398002	      0.28818597	    -19.44339449	      0.23633775	      8.93550586	    -11.94127748	      9.01043027	     -5.65145195	     18.89224245	     23.67590421	     -3.93259815	    -11.25233402	      0.88250658	      4.26927844	    -12.46663408	      6.98426218	     -0.38961197	      0.55854588	     10.89141885
      1.45383333	     -0.58385035	     -0.47078754	    -14.99726176	      0.96173282	      0.98367582	      0.28793736	    -19.49778831	     -0.02621113	      8.77036300	    -12.50601914	      8.74359287	     -5.49133538	     19.21447410	     23.64915696	     -3.77841899	    -11.20284356	      0.31249446	      4.05646618	    -12.77450737	      7.08061104	     -0.37291164	      0.36254473	     10.98025363
      1.45800000	     -0.51436510	     -0.33251225	    -15.07330393	      0.96788929	      0.98344683	      0.28768375	    -19.59607225	     -0.28891967	      8.65915088	    -13.00591031	      8.30673136	     -5.54967590	     22.14321990	     23.57696695	     -3.59811512	    -11.10570462	     -0.20297123	      3.71433030	    -13.20566990	      7.98347391	     -0.36411936	      0.15315259	     10.97854457
      1.46216667	     -0.49064581	     -0.16477918	    -15.14641370	      0.97406282	      0.98316848	      0.28738433	    -19.57338015	     -0.57255815	      8.43699182	    -13.64488389	      8.00767068	     -5.35729893	     22.22987726	     23.60552357	     -3.40888079	    -11.15960134	     -0.82851555	      3.48175818	    -13.29202627	      8.00904608	     -0.29108720	     -0.07245526	     11.09936794
      1.46633333	     -0.44215639	      0.01408073	    -15.20565647	      0.98030052	      0.98297481	      0.28709650	    -19.59047895	     -0.86407885	      8.26559826	    -14.24447710	      7.57249084	     -5.31367703	     22.29031072	     23.58581058	     -3.19088681	    -11.17447790	     -1.40923547	      3.17279793	    -13.45852890	      8.02690275	     -0.23772670	     -0.33131618	     11.13573941
      1.47050000	     -0.40441903	      0.19948509	    -15.26176794	      0.98651678	      0.98279053	      0.28673562	    -19.53187743	     -1.16647759	      8.00217763	    -14.96422915	      7.23413192	     -5.07953627	     22.50781578	     23.56598563	     -2.95493952	    -11.11356907	     -1.95499895	      2.74954776	    -13.80620026	      8.09067721	     -0.17635854	     -0.56541498	     11.20953829
      1.47466667	     -0.35741983	      0.40050295	    -15.28790941	      0.99281682	      0.98267299	      0.28639275	    -19.50969828	     -1.46689436	      7.80065519	    -15.61902116	      6.70554326	     -5.06325943	     22.62155881	     23.55326945	     -2.69862941	    -11.11249183	     -2.53438977	      2.38798358	    -13.94759372	      8.12234175	     -0.10931186	     -0.85277334	     11.22426060
      1.47883333	     -0.33488222	      0.60953797	    -15.31880040	      0.99908315	      0.98254121	      0.28597113	    -19.37993795	     -1.78191894	      7.49656936	    -16.42717897	      6.30639652	     -4.82563784	     22.99137587	     23.55453109	     -2.42748397	    -11.03575476	     -3.07755437	      1.90652355	    -14.32239534	      8.22717236	     -0.01790883	     -1.10522253	     11.25028017
      1.48300000	     -0.23594048	      0.83055301	    -15.33091858	      1.00542818	      0.98259647	      0.28558423	    -19.37180599	     -2.11246090	      7.28295637	    -17.12691787	      5.63713658	     -4.93702492	     27.45459318	     23.44236562	     -2.10999768	    -10.91744444	     -3.55668937	      1.38479120	    -14.78393043	      9.45330576	     -0.00563180	     -1.42352412	     11.24899190
      1.48716667	     -0.22289190	      1.06149211	    -15.29347594	      1.01179364	      0.98253989	      0.28512303	    -19.23178196	     -2.41588645	      6.98388193	    -17.92046032	      5.03995565	     -4.83931644	     27.49471133	     23.50259854	     -1.81350979	    -10.94688449	     -4.19801532	      1.04615055	    -14.74128522	      9.46599209	      0.11358338	     -1.73014715	     11.24580111
      1.49133333	     -0.20052119	      1.29917133	    -15.26097078	      1.01813557	      0.98254300	      0.28464365	    -19.05790852	     -2.73072049	      6.68557010	    -18.78596587	      4.43572732	     -4.73705622	     27.56267201	     23.54076534	     -1.50405992	    -10.96062161	     -4.81541187	      0.68214314	    -14.78772267	      9.48386527	      0.22095024	     -2.03769831	     11.22233365
      1.49550000	     -0.20379365	      1.54434856	    -15.22788217	      1.02447249	      0.98253779	      0.28411358	    -18.80012999	     -3.05426349	      6.34725990	    -19.75485396	      3.88959206	     -4.52321156	     27.78147657	     23.60476370	     -1.18655916	    -10.93386457	     -5.42427457	      0.30205427	    -14.95110655	      9.53932028	      0.35897645	     -2.32276621	     11.17335067
